<svg xmlns="http://www.w3.org/2000/svg" viewBox="0 0 24 24">
  <path fill="rgba(18,24,45,.9)" d="M12 2a1 1 0 011 1v2a1 1 0 11-2 0V3a1 1 0 011-1zm0 17a1 1 0 011 1v2a1 1 0 11-2 0v-2a1 1 0 011-1zm10-7a1 1 0 01-1 1h-2a1 1 0 110-2h2a1 1 0 011 1zM5 12a1 1 0 01-1 1H2a1 1 0 110-2h2a1 1 0 011 1zm13.657-6.657a1 1 0 010 1.414l-1.414 1.414a1 1 0 11-1.414-1.414l1.414-1.414a1 1 0 011.414 0zM7.171 16.243a1 1 0 010 1.414l-1.414 1.414a1 1 0 11-1.414-1.414l1.414-1.414a1 1 0 011.414 0zm10.072 2.828a1 1 0 01-1.414 0l-1.414-1.414a1 1 0 011.414-1.414l1.414 1.414a1 1 0 010 1.414zM6.757 7.171a1 1 0 01-1.414 0L3.929 5.757a1 1 0 011.414-1.414l1.414 1.414a1 1 0 010 1.414z"/>
  <circle cx="12" cy="12" r="4" fill="rgba(18,24,45,.9)"/>
</svg>